# xmcd
#
# Track frame offsets:
#	150
#	10175
#	21375
#	33942
#	47045
#	60152
#	71062
#	85882
#	97022
#	108954
#	120857
#	132122
#	146725
#	160759
#	172977
#	185607
#	200405
#	213612
#	226337
#	236434
#
# Disc length: 3338
#
# Revision: 1
# Processed by: cddbd v1.5.1PL0 Copyright (c) Steve Scherf et al.
# Submitted via: ExactAudioCopy v0.95a5
# Normalized: r0:TDELIM( - )
#
DISCID=090d0814
DTITLE=Various Artist - Jumpin'&Jivin' Guitarists! Blastin' Blues Guitars Vol3
DYEAR=1900
DGENRE=Blues
TTITLE0=Pee Wee Crayton - Oh Yeah Boogie
TTITLE1=Pee Wee Crayton - Jack And The Beanstalk
TTITLE2=Pee Wee Crayton - Some Rainey Day
TTITLE3=Charles Brown - Nutmeg
TTITLE4=Charles Brown - Sail On Blues
TTITLE5=Roy Hawkins - Highway 59
TTITLE6=Roy Hawkins - The Thrill Hunt
TTITLE7=Roy Hawkins - Wine Drinkin' Woman
TTITLE8=Pete Johnson - Minuet Boogie
TTITLE9=Al 'STOMP' Russell Trio - Let's Get Together
TTITLE10=Hadda Brooks - Variety Boogie
TTITLE11=Hadda Brooks - Romance In The Dark
TTITLE12=Goree Carter - Come On Let's Boogie
TTITLE13=Goree Carter - Rock Awhile
TTITLE14=Carl Campbell - Gettin' High
TTITLE15=Clarence Garlow - Bon Ton Roula
TTITLE16=Clarence Garlow - In A Boogie Mood
TTITLE17=Earl Phillips - Oop De Oop
TTITLE18=Memphis Slim - Guitar Cha Cha
TTITLE19=Lonnie Johnson - St.Louis Blues
EXTD=
EXTT0=
EXTT1=
EXTT2=
EXTT3=
EXTT4=
EXTT5=
EXTT6=
EXTT7=
EXTT8=
EXTT9=
EXTT10=
EXTT11=
EXTT12=
EXTT13=
EXTT14=
EXTT15=
EXTT16=
EXTT17=
EXTT18=
EXTT19=
PLAYORDER=
